<?xml version="1.0" encoding="UTF-8"?>
<svg width="48px" height="48px" viewBox="0 0 48 48" version="1.1" xmlns="http://www.w3.org/2000/svg" xmlns:xlink="http://www.w3.org/1999/xlink">
    <!-- Generator: Sketch 64 (93537) - https://sketch.com -->
    <title>icons/modal/Archive</title>
    <desc>Created with Sketch.</desc>
    <g id="icons/modal/Archive" stroke="none" stroke-width="1" fill="none" fill-rule="evenodd">
        <rect id="Rectangle" x="0" y="0" width="48" height="48"></rect>
        <g id="Zip" transform="translate(5.000000, 3.000000)">
            <polygon id="Rectangle" fill="#ECF0F3" points="1 1 27 1 38 12 38 42 1 42"></polygon>
            <polygon id="Rectangle" fill="#F2F7FA" points="27 1 37 11 27 11"></polygon>
            <polygon id="Rectangle" fill="#D4DBE1" points="15 -1.13659082e-13 21 0 21 5 23 5 23 21 13 21 13 5 15 5"></polygon>
            <path d="M26,0 L0,0 L0,43 L38,43 L38,12 L26,0 Z M27,2 L36,11 L27,11 L27,2 Z M20,1 L20,5 L16,5 L16,1 L20,1 Z M22,6 L22,20 L14,20 L14,6 L22,6 Z M1,42 L1,1 L15,1 L15,5 L13,5 L13,21 L15,21 L15,24 L17,24 L17,27 L15,27 L15,30 L17,30 L17,33 L15,33 L15,36 L17,36 L17,39 L15,39 L15,42 L1,42 Z M26,1 L26.125,11.9444444 L37,12 L37,42 L19,42.1111111 L19,39 L21,39 L21,36 L19,35.9444444 L19,33 L21,33 L21,30 L19,30 L19,27 L21,27 L21,24 L19,24 L19,21 L23,21 L23,5 L21,5 L21,1 L26,1 Z M20,12 L20,18 L16,18 L16,12 L20,12 Z" id="🌈--icon-color" fill="#2E4258"></path>
        </g>
    </g>
</svg>