<?xml version="1.0" encoding="UTF-8"?>
<svg width="24px" height="24px" viewBox="0 0 24 24" version="1.1" xmlns="http://www.w3.org/2000/svg" xmlns:xlink="http://www.w3.org/1999/xlink">
    <title>24px/products-and-services-24</title>
    <defs>
        <filter id="filter-1">
            <feColorMatrix in="SourceGraphic" type="matrix" values="0 0 0 0 0.400000 0 0 0 0 0.400000 0 0 0 0 0.400000 0 0 0 1.000000 0"></feColorMatrix>
        </filter>
    </defs>
    <g id="24px/products-and-services-24" stroke="none" stroke-width="1" fill="none" fill-rule="evenodd">
        <g filter="url(#filter-1)" fill="#666666">
            <g>
                <path d="M18.93,7.4 L18.54,7.22 C18.5128444,7.20152504 18.4771556,7.20152504 18.45,7.22 L12,11.22 L5.55,7.22 C5.52397535,7.1981587 5.48602465,7.1981587 5.46,7.22 L5.07,7.4 C5.0270446,7.41968693 4.99964116,7.46274947 5,7.51 L5,8 C4.98995934,8.02572153 4.98995934,8.05427847 5,8.08 L11.46,12.08 L11.46,19.08 C11.4499593,19.1057215 11.4499593,19.1342785 11.46,19.16 L11.86,19.4 C11.8941641,19.4305573 11.9458359,19.4305573 11.98,19.4 L12.38,19.16 C12.3900407,19.1342785 12.3900407,19.1057215 12.38,19.08 L12.38,12.08 L18.84,8.08 C18.9056375,8.09532632 18.9728785,8.06170581 19,8 L19,8 L19,7.5 C18.9966293,7.4564025 18.9698104,7.41808973 18.93,7.4 Z M20.42,5.89 L12.42,2.19 C12.1535743,2.06669881 11.8464257,2.06669881 11.58,2.19 L3.58,5.89 C3.2288182,6.05251276 3.00291662,6.40304969 3,6.79 L3,15.7 C3.00274169,16.0419422 3.18001762,16.3587758 3.47,16.54 L11.47,21.54 C11.7942708,21.7426698 12.2057292,21.7426698 12.53,21.54 L20.53,16.54 C20.8199824,16.3587758 20.9972583,16.0419422 21,15.7 L21,6.79 C20.9970834,6.40304969 20.7711818,6.05251276 20.42,5.89 Z M19.9999903,15.56 C20.0007744,15.6465123 19.9549268,15.7267456 19.88,15.77 L12.13,20.59 C12.0508392,20.6410101 11.9491608,20.6410101 11.87,20.59 L4.12,15.77 C4.04507319,15.7267456 3.99922556,15.6465123 3.99999034,15.56 L3.99999034,7 C4.00100576,6.9031107 4.06017426,6.81633023 4.15,6.78 L11.9,3.15 C11.9631777,3.11949754 12.0368223,3.11949754 12.1,3.15 L19.85,6.73 C19.9589641,6.77159589 20.0222487,6.88550811 19.9999903,7 L19.9999903,15.56 Z" id="🌈--icon-color" fill="#000000"></path>
            </g>
        </g>
    </g>
</svg>