<?xml version="1.0" encoding="UTF-8"?>
<svg width="266px" height="150px" viewBox="0 0 266 150" version="1.1" xmlns="http://www.w3.org/2000/svg" xmlns:xlink="http://www.w3.org/1999/xlink">
    <title>empty state</title>
    <g id="empty-state" stroke="none" stroke-width="1" fill="none" fill-rule="evenodd">
        <g id="empty-state-first-use-light-gray" transform="translate(31.000000, 7.000000)">
            <g id="cast-shadow" transform="translate(25.000000, 56.000000)" fill="#5A7D91" fill-rule="nonzero" opacity="0.3">
                <polygon id="Shape" points="79.4 67.34 7.04 78 0.71 62.6 66.16 0.65 78.15 23.13"></polygon>
                <polygon id="Shape" points="125.16 74.34 96.97 77.5 124.77 3.17 186.6 38.87"></polygon>
            </g>
            <g id="box" transform="translate(58.000000, 0.000000)">
                <polygon id="Shape" fill="#E7F0F5" fill-rule="nonzero" points="63.65 4.32 120.72 37.48 120.72 53.88 63.65 87"></polygon>
                <polygon id="Shape" fill="#CCD9E0" fill-rule="nonzero" points="6.2 37.27 63.65 4.32 63.65 87.25 6.2 53.88"></polygon>
                <polygon id="Shape" fill="#FFFFFF" fill-rule="nonzero" points="63.65 42.96 89.34 57.95 97.36 53.31 63.65 33.68 29.56 53.19 37.61 57.84"></polygon>
                <polygon id="Shape" fill="#FFFFFF" fill-rule="nonzero" points="47.92 63.07 63.65 54.13 79 63.13 63.65 72.07"></polygon>
                <polygon id="left-side" fill="#E7F0F5" fill-rule="nonzero" points="1.32 37.76 5.67 38.78 72.5 76.75 72.5 121 63.65 132.77 1.32 96.96"></polygon>
                <polygon id="shadow" fill="#CCD9E1" fill-rule="nonzero" points="45.15 79.13 33.16 56.65 1.32 86.78 1.32 96.96 46.38 122.85"></polygon>
                <polygon id="right-side" fill="#CCD9E1" fill-rule="nonzero" points="125.58 37.98 87.65 57.85 63.65 73.74 63.65 132.77 125.58 96.96"></polygon>
                <line x1="63.65" y1="73.74" x2="63.65" y2="132.77" id="Shape" stroke="#8CA9B8" stroke-width="0.66" stroke-linecap="round" stroke-linejoin="round"></line>
                <g id="inner-cast-shadow-01" transform="translate(29.000000, 4.000000)" fill="#CCD9E0" fill-rule="nonzero">
                    <polygon id="Shape" points="39.96 32.81 34.65 29.68 0.56 49.19 6.08 52.37"></polygon>
                    <polygon id="Shape" points="39.96 32.81 34.65 29.68 34.65 0.32"></polygon>
                </g>
                <g id="inner-cast-shadow-02" transform="translate(47.000000, 42.000000)" fill="#CCD9E0" fill-rule="nonzero">
                    <polygon id="Shape" points="18.55 13.31 16.65 12.13 0.92 21.07 3.02 22.28"></polygon>
                    <polygon id="Shape" points="18.55 13.31 16.65 12.13 16.65 0.96"></polygon>
                </g>
                <polygon id="Shape" stroke="#8CA9B8" stroke-width="0.66" stroke-linecap="round" stroke-linejoin="round" points="63.65 42.96 89.34 57.95 97.36 53.31 63.65 33.68 29.56 53.19 37.61 57.84"></polygon>
                <polygon id="Shape" stroke="#8CA9B8" stroke-width="0.66" stroke-linecap="round" stroke-linejoin="round" points="47.92 63.07 63.65 54.13 79 63.13 63.65 72.07"></polygon>
                <line x1="63.65" y1="33.8" x2="63.65" y2="4.32" id="Shape" stroke="#8CA9B8" stroke-width="0.66" stroke-linecap="round" stroke-linejoin="round"></line>
                <line x1="63.65" y1="54.3" x2="63.65" y2="43.06" id="Shape" stroke="#8CA9B8" stroke-width="0.66" stroke-linecap="round" stroke-linejoin="round"></line>
                <g id="top" transform="translate(1.000000, 2.000000)">
                    <path d="M62.65,0 L0.32,35.76 L62.65,71.76 L124.58,36 L62.65,0 Z M62.65,67.87 L6.19,35.27 L62.64,2.89 L118.74,35.48 L62.65,67.87 Z" id="box-top" fill="#FFFFFF" fill-rule="nonzero"></path>
                    <polygon id="top-inner-stroke" stroke="#8CA9B8" stroke-width="0.66" stroke-linecap="round" stroke-linejoin="round" points="62.64 67.85 6.22 35.27 62.64 2.9 118.71 35.48"></polygon>
                    <polyline id="top-outer-stroke" stroke="#8CA9B8" stroke-width="0.66" stroke-linecap="round" stroke-linejoin="round" points="0.32 35.76 62.65 71.76 124.58 36"></polyline>
                </g>
                <g id="outline" fill="#5A7D91" fill-rule="nonzero">
                    <path d="M63.65,2 L125.58,38 L125.58,97 L63.65,132.81 L1.32,97 L1.32,37.76 L63.65,2 L63.65,2 Z M63.65,0.56 L63.02,0.92 L0.7,36.67 L0.07,37.03 L0.07,97.68 L0.7,98.04 L63,133.86 L63.63,134.22 L64.25,133.86 L126.21,98 L126.83,97.64 L126.83,37.26 L126.21,36.9 L64.27,0.9 L63.65,0.54 L63.65,0.56 Z" id="Shape"></path>
                </g>
            </g>
            <g id="lid" transform="translate(0.000000, 2.000000)">
                <polygon id="side-shadow" fill="#CCD9E0" fill-rule="nonzero" points="40.29 129.42 93.87 59.03 80.74 46.48 30.21 109.88 28.25 124.02"></polygon>
                <polygon id="side" fill="#FFFFFF" fill-rule="nonzero" points="68.02 7.59 55.98 2.19 63.38 33.18 81.82 53.63 93.87 59.03"></polygon>
                <polygon id="top-2" fill="#FFFFFF" fill-rule="nonzero" points="2.4 72.58 55.98 2.19 81.82 53.63 28.25 124.02"></polygon>
                <polyline id="inner-stroke" stroke="#8CA9B8" stroke-width="0.66" stroke-linecap="round" stroke-linejoin="round" points="55.98 2.19 81.82 53.63 28.25 124.02"></polyline>
                <line x1="81.82" y1="53.63" x2="93.87" y2="59.03" id="inner-stroke-2" stroke="#8CA9B8" stroke-width="0.66"></line>
                <g id="outer-stroke" fill="#5A7D91" fill-rule="nonzero">
                    <path d="M56,2.19 L68,7.59 L93.87,59 L40.29,129.42 L28.29,124.02 L2.4,72.58 L56,2.19 L56,2.19 Z M55.6,0.64 L55,1.43 L1.41,71.82 L0.93,72.44 L1.28,73.14 L27.13,124.58 L27.33,124.98 L27.74,125.16 L39.74,130.56 L40.65,130.96 L41.25,130.17 L94.82,59.78 L95.3,59.16 L94.95,58.47 L69.14,7 L68.94,6.61 L68.53,6.42 L56.53,1.03 L55.62,0.62 L55.6,0.64 Z" id="Shape"></path>
                </g>
            </g>
            <g id="logo" transform="translate(31.000000, 52.000000)" fill="#5A7D91" fill-rule="nonzero">
                <path d="M20.92,16 L26.67,8.56 L9.19,0.34 C8.33313534,-0.0615803246 7.31353036,0.159538829 6.7,0.88 L0.7,7.94 L1.64,7.62 C2.11984816,7.44716267 2.64874655,7.47234831 3.11,7.69 L20.92,16 Z" id="Shape"></path>
                <path d="M15.43,15 L9.68,31.27 C9.20321692,32.719652 7.71414636,33.5803865 6.22,33.27 L2.22,32.34 L2.85,32.02 C3.25246731,31.807078 3.5960064,31.4978928 3.85,31.12 L15.43,15 Z" id="Shape"></path>
                <path d="M6.69,25.08 C6.69771218,25.3547164 6.60929353,25.6235091 6.44,25.84 L2.54,30.9 C2.34476398,31.1551264 2.01165021,31.2622294 1.70431128,31.1686915 C1.39697236,31.0751536 1.18000451,30.8006343 1.16,30.48 L0.39,10.41 C0.368677829,9.86540098 0.631319771,9.34870629 1.08385769,9.04497589 C1.53639561,8.74124548 2.11407744,8.69393908 2.61,8.92 L6.19,10.54 L6.69,25.08 Z" id="Shape"></path>
            </g>
        </g>
    </g>
</svg>