<svg width="266" height="150" viewBox="0 0 266 150" fill="none" xmlns="http://www.w3.org/2000/svg">
<path opacity="0.3" d="M118.88 127.27L128.21 127.66L144.21 137.23L149.31 145.23L165.59 144.23L177.68 137L179.68 138.47C180.732 139.237 182.14 139.303 183.26 138.64L197.26 130.3C197.454 130.187 197.58 129.985 197.596 129.761C197.612 129.537 197.516 129.32 197.34 129.18L195 127.29L209.22 118.78C209.292 118.739 209.337 118.663 209.337 118.58C209.337 118.497 209.292 118.421 209.22 118.38L205.68 115.98L187 117.72L191.72 107.9L200.27 103.09C200.376 103.03 200.441 102.917 200.441 102.795C200.441 102.673 200.376 102.561 200.27 102.5L187.87 95.5001L138.51 93.8901L116.65 121.2L118.88 127.27Z" fill="#5A7D91"/>
<path d="M118.47 126.5L77.4702 102.82C76.9249 102.404 76.6398 101.731 76.7202 101.05V34.5701C76.7436 32.8998 77.5605 31.3404 78.9202 30.3701L119.27 7.0701C119.696 6.79237 120.239 6.76562 120.69 7.0001L161.69 30.6601L131.44 68.8601L118.47 126.5Z" fill="white"/>
<path d="M76.8502 33.4399C76.7567 33.8096 76.7064 34.1887 76.7002 34.5699V101.05C76.6197 101.731 76.9049 102.404 77.4502 102.82L118.45 126.5L133.54 66.1799L76.8502 33.4399Z" fill="#E7F0F5"/>
<path d="M160.27 103.1L119.92 126.39C118.71 127.1 117.72 126.39 117.72 124.73V58.25C117.747 56.5806 118.563 55.0225 119.92 54.05L160.27 30.76C161.48 30.06 162.47 30.76 162.47 32.42V98.9C162.444 100.57 161.627 102.128 160.27 103.1V103.1Z" fill="#CCD9E1"/>
<path fill-rule="evenodd" clip-rule="evenodd" d="M120.145 5.56016C120.147 5.56013 120.149 5.56009 120.15 5.56006H120.125C120.132 5.56007 120.139 5.5601 120.145 5.56016ZM120.145 5.56016C119.618 5.57224 119.103 5.72032 118.65 5.99006L78.2701 29.2901C76.5209 30.4809 75.4671 32.454 75.4501 34.5701V101.05C75.3586 102.185 75.8909 103.281 76.8401 103.91L117.84 127.58C118.203 127.796 118.618 127.91 119.04 127.91C119.569 127.899 120.086 127.751 120.54 127.48L160.89 104.18C162.639 102.989 163.693 101.016 163.71 98.9001V32.4201C163.809 31.2555 163.245 30.1342 162.25 29.5201C161.91 29.3001 161.39 28.9901 160.56 28.5201L156 25.8801L142 17.8101L121.32 5.88006C120.962 5.67416 120.558 5.56405 120.145 5.56016ZM120.69 6.96006C120.517 6.85914 120.32 6.80728 120.12 6.81006H120.15C119.843 6.82226 119.544 6.91168 119.28 7.07006L78.9301 30.3701C77.5703 31.3403 76.7535 32.8998 76.7301 34.5701V101.05C76.6497 101.731 76.9348 102.404 77.4801 102.82L118.48 126.5C118.656 126.604 118.856 126.659 119.06 126.66C119.369 126.648 119.669 126.555 119.93 126.39L160.28 103.1C161.637 102.128 162.453 100.57 162.48 98.9001V32.4201C162.565 31.7209 162.262 31.031 161.69 30.6201L120.69 6.96006Z" fill="#5A7D91"/>
<path d="M120.3 57.83C120.334 57.2046 120.598 56.6137 121.04 56.17L159.89 33.74V99.32C159.856 99.9454 159.592 100.536 159.15 100.98L120.83 123.11C120.722 123.175 120.587 123.177 120.478 123.114C120.368 123.052 120.3 122.936 120.3 122.81V57.83Z" fill="#5A7D91"/>
<path d="M156.09 104.35L129.88 89.2102L155.93 74.1702L182.14 89.3102L156.09 104.35V104.35Z" fill="#6F8EA0"/>
<path d="M122.2 90.8702V113.57L144.16 100.89V78.1902L122.2 90.8702V90.8702Z" fill="#6F8EA0"/>
<path fill-rule="evenodd" clip-rule="evenodd" d="M122.2 90.8702V113.57L144.16 100.89V78.1902L122.2 90.8702V90.8702Z" stroke="#5A7E92" stroke-width="0.66" stroke-linejoin="round"/>
<path d="M144.28 114.06L125.76 103.36L144.17 92.7402L162.69 103.43L144.28 114.06V114.06Z" fill="#6F8EA0"/>
<path d="M180.82 88.5401L174 84.6001L172.43 85.1101L173.92 93.5601C173.92 93.5601 178.58 90.3001 180.82 88.5401Z" fill="#80A0B1"/>
<path fill-rule="evenodd" clip-rule="evenodd" d="M144.28 114.06L125.76 103.36L144.17 92.7402L162.69 103.43L144.28 114.06V114.06Z" stroke="#5A7E92" stroke-width="0.66" stroke-linejoin="round"/>
<path d="M121.57 120.29L148.35 135.75V105.11L121.57 89.6399V120.29V120.29Z" fill="#E7F0F5"/>
<path d="M121.57 116.7L148.35 132.17V124.06L121.57 108.59V116.7V116.7Z" fill="#E7F0F5"/>
<path d="M121.57 111.67L148.35 127.13V124.06L121.57 108.59V111.67V111.67Z" fill="white"/>
<path d="M121.57 92.9299L148.35 108.39V105.11L121.57 89.6399V92.9299V92.9299Z" fill="white"/>
<path d="M122.64 117.37V112.25L126.64 111.54L126.69 108.97L130.37 110.97C130.44 111.01 130.526 111.009 130.594 110.968C130.663 110.926 130.704 110.85 130.7 110.77V98.1999H136.4L121.58 89.6399V120.29L148.36 135.75V132.22L122.64 117.37Z" fill="#CCD9E1"/>
<path fill-rule="evenodd" clip-rule="evenodd" d="M121.57 111.67L148.35 127.13V124.06L121.57 108.59V111.67V111.67Z" stroke="#8CA9B8" stroke-width="0.66" stroke-linecap="round" stroke-linejoin="round"/>
<path fill-rule="evenodd" clip-rule="evenodd" d="M121.57 116.7L148.35 132.17L121.57 116.7Z" stroke="#8CA9B8" stroke-width="0.66" stroke-linecap="round" stroke-linejoin="round"/>
<path d="M121.57 92.9299L148.35 108.39" stroke="#8CA9B8" stroke-width="0.66" stroke-linecap="round" stroke-linejoin="round"/>
<path d="M150.18 72.33L183.32 91.47V88.37L150.18 69.23V72.33V72.33Z" fill="white"/>
<path d="M150.18 72.33L172.47 85.2L175.45 83.82L150.18 69.23V72.33V72.33Z" fill="#CCD9E1"/>
<path d="M143.38 106.87V140.14C143.327 140.68 143.563 141.208 144 141.53L148.94 144.38L185.57 118.28L192.68 84.1L187.75 81.25L143.38 106.87Z" fill="#E7F0F5"/>
<path d="M143.38 106.87L148.6 109.89L174.01 98.06L192.68 84.1L187.75 81.25L143.38 106.87V106.87Z" fill="white"/>
<path fill-rule="evenodd" clip-rule="evenodd" d="M143.38 106.87L148.6 109.89L174.01 98.06L192.68 84.1L187.75 81.25L143.38 106.87V106.87Z" stroke="#8CA9B8" stroke-width="0.66" stroke-linejoin="round"/>
<path d="M187.75 81.25L143.38 106.87V140.14C143.333 140.784 143.558 141.419 144 141.89" stroke="#8CA9B8" stroke-width="0.66" stroke-linejoin="round"/>
<path d="M148.31 109.72V143C148.31 144.38 149.31 144.93 150.49 144.24L190.49 121.14C191.775 120.306 192.585 118.909 192.67 117.38V84.1001L148.31 109.72Z" fill="#CCD9E1"/>
<path d="M192.68 84.1001L148.31 109.72V143C148.31 144.38 149.31 145.27 150.5 144.57" stroke="#8CA9B8" stroke-width="0.66" stroke-linecap="round" stroke-linejoin="round"/>
<path d="M166 110.1L162.62 108.15V105.61L173.2 100.35L182.85 99V101.54C182.831 101.805 182.671 102.038 182.43 102.15L168.43 110.15C167.659 110.523 166.756 110.504 166 110.1Z" fill="#E7F0F5"/>
<path d="M173.24 100.35L167.49 103.21V110.44C167.839 110.449 168.184 110.366 168.49 110.2L182.49 102.2C182.731 102.088 182.891 101.855 182.91 101.59V99L173.24 100.35Z" fill="#CCD9E1"/>
<path d="M166 107.56L162.62 105.56L178.83 96.2L182.21 98.2C182.93 98.62 183.01 99.2 182.39 99.61L168.39 107.61C167.63 107.969 166.745 107.951 166 107.56V107.56Z" fill="white"/>
<path fill-rule="evenodd" clip-rule="evenodd" d="M182.84 99C182.799 98.6475 182.575 98.3431 182.25 98.2L178.87 96.2L162.66 105.56V108.1L166 110.1C166.748 110.52 167.651 110.557 168.43 110.2L182.43 102.2C182.671 102.088 182.831 101.854 182.85 101.59C182.85 101.26 182.84 99 182.84 99Z" stroke="#8CA9B8" stroke-width="0.66" stroke-linecap="round" stroke-linejoin="round"/>
<path fill-rule="evenodd" clip-rule="evenodd" d="M166 107.56L162.62 105.56L178.83 96.2L182.21 98.2C182.93 98.62 183.01 99.2 182.39 99.61L168.39 107.61C167.63 107.969 166.745 107.951 166 107.56V107.56Z" stroke="#8CA9B8" stroke-width="0.66" stroke-linejoin="round"/>
<path fill-rule="evenodd" clip-rule="evenodd" d="M149.45 68.21L150.1 67.74L150.8 68.15L179.4 84.62L187.15 80.15L187.77 79.79L188.4 80.15L193.33 83L193.95 83.36V117.36C193.871 119.336 192.824 121.147 191.15 122.2L151.15 145.3C150.668 145.597 150.116 145.759 149.55 145.77C149.133 145.77 148.724 145.664 148.36 145.46L143.36 142.6C142.54 142.054 142.072 141.113 142.13 140.13V133.59L120.94 121.36L120.32 121V89L120.84 88.62L149.45 68.21ZM179.38 86.09L150.18 69.23L121.57 89.64V120.29L143.38 132.88V140.14C143.327 140.68 143.563 141.208 144 141.53L148.93 144.38C149.103 144.481 149.3 144.533 149.5 144.53C149.854 144.52 150.199 144.417 150.5 144.23L190.5 121.13C191.785 120.296 192.595 118.899 192.68 117.37V84.1L187.75 81.25L179.38 86.09Z" fill="#5A7D91"/>
<path fill-rule="evenodd" clip-rule="evenodd" d="M147.44 104.53L176.69 87.6401L147.44 104.53Z" stroke="#5A7E92" stroke-width="0.66" stroke-linejoin="round"/>
<path d="M121.57 89.6401L147.44 104.53" stroke="#5A7E92" stroke-width="0.66" stroke-linejoin="round"/>
<path d="M176.69 87.6401L150.18 72.3301" stroke="#5A7E92" stroke-width="0.66" stroke-linejoin="round"/>
<path d="M160.23 30.7999L120.23 53.8999C118.928 54.7247 118.1 56.1222 118 57.6599V91.1299L123 93.9999L159 65.4399L166.64 33.4399L161.79 30.6399C161.279 30.4069 160.683 30.4681 160.23 30.7999Z" fill="white"/>
<path d="M118 57.66V91.13L123 94L127.54 90.4L133.54 66.2L118.05 57.26C118.06 57.38 118 57.52 118 57.66Z" fill="#E7F0F5"/>
<path d="M165.17 33.64L125.17 56.74C123.891 57.5782 123.086 58.9734 123 60.5V94L167.37 68.38V34.88C167.34 33.5 166.37 33 165.17 33.64Z" fill="#CCD9E1"/>
<path d="M167.42 33.6201C166.722 33.2262 165.868 33.2262 165.17 33.6201L125.17 56.7201C123.886 57.5624 123.08 58.9663 123 60.5001V94.0001" stroke="#8CA9B8" stroke-width="0.66" stroke-linejoin="round"/>
<path fill-rule="evenodd" clip-rule="evenodd" d="M159.58 29.72C160.062 29.4234 160.614 29.2611 161.18 29.25H161.24C161.661 29.2481 162.076 29.3586 162.44 29.57C162.657 29.6871 164.135 30.5414 165.406 31.2756C166.305 31.7952 167.1 32.2547 167.27 32.35C168.168 32.8649 168.692 33.8477 168.62 34.88V69.08L168 69.44L123.59 95.06L122.96 95.42L122.34 95.06L117.41 92.21L116.78 91.85V57.66C116.859 55.6838 117.906 53.8733 119.58 52.82L159.58 29.72ZM161.79 30.65C161.614 30.5478 161.413 30.4959 161.21 30.5H161.18C160.827 30.5129 160.482 30.6162 160.18 30.8L120.18 53.9C118.897 54.736 118.088 56.1316 118 57.66V91.13L123 94L167.34 68.36V34.88C167.405 34.3078 167.132 33.7499 166.64 33.45L161.79 30.65Z" fill="#5A7D91"/>
<path d="M140.68 59.5101L137.3 57.5601V55.0001L147.88 49.7301L157.49 48.3801V50.9201C157.473 51.1854 157.312 51.4199 157.07 51.5301L143.07 59.5901C142.304 59.9339 141.422 59.9043 140.68 59.5101V59.5101Z" fill="#E7F0F5"/>
<path d="M147.88 49.7501L142 52.6801V59.8501C142.382 59.8703 142.761 59.7874 143.1 59.6101L157.1 51.5501C157.342 51.4399 157.503 51.2054 157.52 50.9401V48.4001L147.88 49.7501Z" fill="#CCD9E1"/>
<path d="M140.68 57.0001L137.3 55.0001L153.51 45.6401L156.89 47.6401C157.61 48.0501 157.69 48.6401 157.07 49.0401L143.07 57.1001C142.301 57.4377 141.419 57.4008 140.68 57.0001Z" fill="white"/>
<path fill-rule="evenodd" clip-rule="evenodd" d="M157.48 48.4001C157.436 48.0514 157.212 47.7514 156.89 47.6101L153.51 45.6101L137.3 55.0001V57.5401L140.68 59.4901C141.429 59.9039 142.329 59.9409 143.11 59.5901L157.11 51.5301C157.352 51.4199 157.513 51.1854 157.53 50.9201C157.49 50.6701 157.48 48.4001 157.48 48.4001Z" stroke="#8CA9B8" stroke-width="0.66" stroke-linecap="round" stroke-linejoin="round"/>
<path fill-rule="evenodd" clip-rule="evenodd" d="M140.68 57.0001L137.3 55.0001L153.51 45.6401L156.89 47.6401C157.61 48.0501 157.69 48.6401 157.07 49.0401L143.07 57.1001C142.301 57.4377 141.419 57.4008 140.68 57.0001Z" stroke="#8CA9B8" stroke-width="0.66" stroke-linejoin="round"/>
</svg>
